<?xml version="1.0" standalone="no"?>
<!DOCTYPE svg PUBLIC "-//W3C//DTD SVG 20010904//EN"
 "http://www.w3.org/TR/2001/REC-SVG-20010904/DTD/svg10.dtd">
<svg version="1.0" xmlns="http://www.w3.org/2000/svg"
 width="506.000000pt" height="506.000000pt" viewBox="0 0 506.000000 506.000000"
 preserveAspectRatio="xMidYMid meet">
<metadata>
Created by potrace 1.11, written by Peter Selinger 2001-2013
</metadata>
<g transform="translate(0.000000,506.000000) scale(0.100000,-0.100000)"
fill="#000000" stroke="none">
<path d="M3910 4885 c-36 -17 -108 -55 -160 -83 -52 -28 -129 -68 -170 -89
-114 -59 -387 -202 -455 -238 -33 -18 -118 -63 -190 -100 -71 -37 -166 -87
-210 -110 -124 -66 -244 -125 -251 -124 -4 0 -10 -4 -13 -9 -3 -6 -53 -34
-111 -63 -58 -29 -106 -57 -108 -61 -2 -4 -11 -8 -21 -8 -9 0 -21 -4 -27 -9
-5 -5 -58 -35 -119 -66 -60 -32 -141 -74 -180 -95 -38 -20 -142 -75 -230 -120
-88 -46 -214 -112 -280 -147 -66 -34 -160 -84 -210 -109 l-90 -46 0 -307 0
-306 733 -365 c402 -200 732 -367 732 -370 0 -3 -82 -46 -182 -95 -101 -49
-200 -100 -220 -112 -21 -13 -38 -21 -38 -19 0 2 -225 -108 -499 -245 -275
-137 -504 -249 -509 -249 -5 0 -12 -8 -14 -17 -2 -10 -4 -274 -3 -588 0 -565
0 -570 20 -573 11 -1 41 8 65 21 128 68 285 150 370 193 52 27 97 52 98 57 2
4 12 7 23 7 10 0 19 5 19 10 0 6 9 10 19 10 11 0 21 3 23 8 2 4 57 35 123 69
66 34 165 85 220 115 55 29 138 73 185 97 47 24 119 61 160 83 41 21 111 58
155 81 44 22 82 44 85 48 3 3 16 10 30 14 14 4 27 10 30 14 3 3 28 17 55 31
28 13 53 28 56 33 3 5 9 8 13 7 8 -2 184 87 205 103 7 6 20 12 28 13 7 1 20 7
27 13 7 6 71 41 142 77 71 36 152 79 179 94 28 15 102 53 165 85 63 32 117 61
120 64 3 3 47 26 98 51 50 24 92 48 92 54 0 5 3 7 6 3 3 -3 24 5 46 17 l41 23
0 375 c-1 207 -3 381 -7 386 -3 6 -244 128 -534 272 -788 392 -911 454 -906
461 5 8 866 439 877 439 5 0 15 7 24 15 8 8 19 13 24 10 5 -4 9 -2 9 4 0 5 14
12 30 16 17 4 30 11 30 16 0 5 3 8 8 7 4 -1 102 45 219 103 137 67 214 111
219 123 7 20 10 1023 3 1030 -2 2 -33 -11 -69 -29z"/>
</g>
</svg>
